<svg width="18" height="18" viewBox="0 0 18 18" fill="none" xmlns="http://www.w3.org/2000/svg">
<g id="discord">
<path id="Vector" d="M13.9425 4.4175C13.02 3.99 12.0375 3.675 11.0025 3.495C10.875 3.72 10.725 4.0275 10.6275 4.275C9.53248 4.11 8.44498 4.11 7.37249 4.275C7.26749 4.0275 7.11749 3.72 6.98999 3.495C5.95499 3.675 4.97249 3.99 4.04999 4.4175C2.18999 7.22249 1.68749 9.96002 1.93499 12.6525C3.17249 13.575 4.36499 14.13 5.54249 14.4975C5.83499 14.1 6.08999 13.6725 6.31499 13.23C5.88749 13.0725 5.48249 12.87 5.09999 12.6375C5.20499 12.5625 5.30249 12.48 5.39999 12.405C7.74748 13.5 10.29 13.5 12.6075 12.405C12.705 12.4875 12.8025 12.5625 12.9075 12.6375C12.525 12.87 12.1125 13.065 11.6925 13.23C11.9175 13.6725 12.1725 14.1 12.465 14.4975C13.6425 14.13 14.8425 13.575 16.0725 12.6525C16.365 9.52502 15.57 6.81749 13.9575 4.4175H13.9425ZM6.62999 11.0025C5.92499 11.0025 5.34749 10.35 5.34749 9.54752C5.34749 8.74502 5.90999 8.09252 6.62999 8.09252C7.34999 8.09252 7.91998 8.74502 7.91248 9.54752C7.91248 10.3425 7.34999 11.0025 6.62999 11.0025ZM11.3625 11.0025C10.6575 11.0025 10.08 10.35 10.08 9.54752C10.08 8.74502 10.6425 8.09252 11.3625 8.09252C12.0825 8.09252 12.6525 8.74502 12.645 9.54752C12.645 10.3425 12.0825 11.0025 11.3625 11.0025Z" fill="#8A96FF"/>
</g>
</svg>
