<svg width="18" height="18" viewBox="0 0 18 18" fill="none" xmlns="http://www.w3.org/2000/svg">
<g id="telegram" clip-path="url(#clip0_1_66)">
<g id="&#233;&#161;&#181;&#233;&#157;&#162;-1">
<g id="Brand">
<g id="telegram_fill">
<path id="&#232;&#183;&#175;&#229;&#190;&#132;" fill-rule="evenodd" clip-rule="evenodd" d="M14.833 3.32238C15.6489 2.97883 16.5236 3.66878 16.3795 4.54229L14.6779 14.8598C14.5138 15.8546 13.4212 16.4254 12.5085 15.9297C11.7448 15.5149 10.6117 14.8764 9.59047 14.2091C9.08055 13.8759 7.51912 12.8075 7.71105 12.0469C7.87515 11.3966 10.5001 8.95313 12.0001 7.5C12.5893 6.9292 12.3209 6.59945 11.6251 7.125C9.89887 8.42873 7.12749 10.4109 6.21102 10.9688C5.40242 11.4609 4.98023 11.5449 4.47664 11.4609C3.55704 11.3077 2.70447 11.0704 2.00841 10.7819C1.06763 10.3919 1.11345 9.099 2.00777 8.7225L14.833 3.32238Z" fill="#8A96FF"/>
</g>
</g>
</g>
</g>
<defs>
<clipPath id="clip0_1_66">
<rect width="18" height="18" fill="white"/>
</clipPath>
</defs>
</svg>
